# xmcd
#
# Track frame offsets:
#	182
#	14105
#	33780
#	57022
#	86872
#	108947
#	137995
#	152425
#	165050
#	181452
#	208402
#
# Disc length: 2979 seconds
#
# Revision: 1
# Processed by: cddbd v1.5.2PL0 Copyright (c) Steve Scherf et al.
# Submitted via: EasyCDDAExtractor 5.0.6
#
DISCID=8c0ba10b
DTITLE=The Band - The Best of The Band Vol.II
DYEAR=1999
DGENRE=Folk-Rock
TTITLE0=Stand up
TTITLE1=Remedy
TTITLE2=Back to memphis
TTITLE3=Blind Willie Mc tell
TTITLE4=Atlantic City
TTITLE5=Forever young
TTITLE6=Young blood
TTITLE7=Stuff you gotta watch
TTITLE8=White cadillac
TTITLE9=The high price of love
TTITLE10=She knows
EXTD=
EXTT0=
EXTT1=
EXTT2=
EXTT3=
EXTT4=
EXTT5=
EXTT6=
EXTT7=
EXTT8=
EXTT9=
EXTT10=
PLAYORDER=
